<svg version="1.1" xmlns="http://www.w3.org/2000/svg" style="display: block;" viewBox="7.224246978759766 7.9737701416015625 1834.8211669921875 1833.9273681640625" width="463" height="461">
<path transform="translate(0,0)" fill="rgb(0,44,105)" d="M 882.874 9.01887 C 914.198 8.25243 946.909 6.59639 978.014 10.2542 C 996.545 11.8986 1014.92 13.3401 1033.38 15.7937 C 1064.99 17.84 1095.55 23.6042 1126.46 30.2278 C 1135.44 32.1538 1145.39 33.5056 1154.04 36.4411 C 1170.04 37.8513 1209.21 51.7361 1225.96 57.5577 C 1355.42 102.281 1473.52 174.822 1571.94 270.08 C 1587.62 285.299 1603.98 300.572 1617.86 317.443 C 1618.21 317.862 1618.54 318.289 1618.88 318.712 C 1610.24 334.604 1581.95 364.041 1568.37 379.142 C 1527.99 424.06 1487.87 468.159 1444.28 510.081 C 1429.37 524.417 1414.19 538.713 1398.75 552.465 C 1387.15 562.791 1374.99 572.517 1363.85 583.347 C 1300.16 641.549 1228.94 693.752 1157.99 742.684 C 1130.07 761.937 1102.47 782.002 1073.13 799.043 C 1076.36 789.434 1080.23 779.966 1082.62 770.1 C 1086.18 755.391 1086.1 741.089 1084.48 726.097 C 1081.75 700.885 1055.15 594.917 1043.8 576.169 C 1009.03 579.893 971.057 609.103 949.807 635.274 C 929.514 660.268 911.173 685.962 888.892 709.379 C 873.47 725.587 844.372 747.854 832.861 764.132 C 827.282 772.021 825.931 780.585 824.736 789.962 C 821.11 818.401 821.181 847.677 822.159 876.275 C 822.806 895.187 827.954 941.518 823.59 957.387 C 822.801 960.26 820.02 960.538 817.323 960.904 C 804.038 962.703 789.498 960.567 776.061 960.509 C 763.865 960.456 751.013 961.965 738.936 960.639 C 735.292 960.24 730.651 959.699 727.699 957.288 C 722.534 953.072 720.761 941.436 718.634 935.32 C 709.703 909.63 701.852 883.586 693.765 857.619 C 678.988 810.167 667.869 763.171 606.935 763.951 C 584.172 764.243 565.931 772.507 550.231 788.874 C 529.281 810.714 522.489 842.332 523.199 871.834 C 523.748 894.597 529.947 916.45 536.965 937.948 C 541.756 952.626 560.064 987.782 558.492 1001.04 C 557.605 1008.52 548.637 1018.44 543.62 1023.73 C 516.804 1052.51 485.183 1076.41 450.171 1094.34 C 442.375 1098.35 434.134 1101.23 426.336 1105.11 C 420.95 1155.82 402.424 1201.84 377.867 1246.16 C 372.178 1256.43 366.675 1267.8 359.282 1276.95 C 355.615 1279.62 353.219 1283.33 350.629 1287.01 C 330.661 1315.35 312.718 1345.43 293.473 1374.31 L 248.668 1442.38 C 237.897 1458.54 226.369 1474.5 216.425 1491.17 C 214.96 1493.63 213.875 1495.91 213.418 1498.75 C 213.313 1499.4 213.254 1500.06 213.194 1500.72 C 208.366 1493.32 201.987 1486.56 196.453 1479.64 C 187.157 1468.13 178.264 1456.3 169.793 1444.17 C 126.397 1382.39 90.897 1317.48 63.8796 1246.89 C 51.5907 1214.79 40.5688 1181.75 32.4156 1148.33 C 0.189666 1016.26 -0.0412087 862.136 25.5815 728.862 C 32.0554 695.188 44.7282 641.388 58.3879 610.825 C 58.4163 610.527 58.4273 610.227 58.4732 609.931 C 60.8026 594.918 78.5275 558.604 85.179 543.64 C 146.367 408.21 239.99 289.946 357.764 199.312 C 376.398 181.418 402.853 166.042 424.777 152.022 C 531.339 83.7998 650.899 38.4321 775.895 18.7886 C 789.458 16.6319 803.213 15.9254 816.84 14.2441 C 837.964 10.2903 861.325 10.3824 882.874 9.01887 z"/>
<path transform="translate(0,0)" fill="rgb(0,154,254)" d="M 426.336 1105.11 C 421.618 1095.77 414.769 1086.91 408.913 1078.23 C 399.184 1064.07 390.07 1049.51 381.593 1034.57 C 317.98 919.958 269.083 792.602 277.922 659.304 C 285.171 558.254 331.891 464.114 407.985 397.231 C 489.167 326.355 588.836 291.467 696.739 298.77 C 740.063 301.701 782.345 310.142 824.761 318.854 C 900.975 334.509 1002 353.489 1055.37 415.327 C 1078.26 441.853 1091.33 476.061 1088.6 511.205 C 1086.77 534.807 1077.65 550.627 1059.02 565.036 C 1054.49 568.541 1049.23 571.365 1044.95 575.13 L 1043.8 576.169 C 1009.03 579.893 971.057 609.103 949.807 635.274 C 929.514 660.268 911.173 685.962 888.892 709.379 C 873.47 725.587 844.372 747.854 832.861 764.132 C 827.282 772.021 825.931 780.585 824.736 789.962 C 821.11 818.401 821.181 847.677 822.159 876.275 C 822.806 895.187 827.954 941.518 823.59 957.387 C 822.801 960.26 820.02 960.538 817.323 960.904 C 804.038 962.703 789.498 960.567 776.061 960.509 C 763.865 960.456 751.013 961.965 738.936 960.639 C 735.292 960.24 730.651 959.699 727.699 957.288 C 722.534 953.072 720.761 941.436 718.634 935.32 C 709.703 909.63 701.852 883.586 693.765 857.619 C 678.988 810.167 667.869 763.171 606.935 763.951 C 584.172 764.243 565.931 772.507 550.231 788.874 C 529.281 810.714 522.489 842.332 523.199 871.834 C 523.748 894.597 529.947 916.45 536.965 937.948 C 541.756 952.626 560.064 987.782 558.492 1001.04 C 557.605 1008.52 548.637 1018.44 543.62 1023.73 C 516.804 1052.51 485.183 1076.41 450.171 1094.34 C 442.375 1098.35 434.134 1101.23 426.336 1105.11 z"/>
<path transform="translate(0,0)" fill="rgb(1,19,65)" d="M 1154.04 36.4411 C 1170.04 37.8513 1209.21 51.7361 1225.96 57.5577 C 1355.42 102.281 1473.52 174.822 1571.94 270.08 C 1587.62 285.299 1603.98 300.572 1617.86 317.443 C 1618.21 317.862 1618.54 318.289 1618.88 318.712 C 1610.24 334.604 1581.95 364.041 1568.37 379.142 C 1527.99 424.06 1487.87 468.159 1444.28 510.081 C 1429.37 524.417 1414.19 538.713 1398.75 552.465 C 1387.15 562.791 1374.99 572.517 1363.85 583.347 L 1361.39 582.464 L 1360.74 580.778 L 1362 578.286 C 1370.96 573.148 1376.56 564.505 1384.36 557.903 C 1414.47 532.434 1442.17 504.975 1470.04 477.118 C 1519.52 428.222 1566.37 376.738 1610.39 322.882 C 1611.12 321.977 1612.45 320.315 1612.17 319.117 C 1610.48 311.885 1573.87 277.728 1565.79 269.955 C 1493.93 201.251 1411.53 144.504 1321.71 101.872 C 1298.01 90.6001 1273.35 80.8536 1249.06 70.9405 C 1231.83 64.0879 1214.29 58.036 1196.5 52.8043 C 1182.98 48.8916 1165.89 46.1937 1153.6 39.7474 L 1154.46 39.1785 L 1154.79 40.5167 L 1155.35 39.2388 L 1155.66 40.9223 L 1156.5 39.4136 C 1160.37 40.281 1163.52 41.5054 1167.04 43.2495 L 1168.23 43.8464 L 1169.45 43.3713 C 1169.27 43.03 1169.15 42.6546 1168.92 42.3474 C 1167.68 40.7159 1166.2 40.2801 1164.31 40.0217 C 1161.12 39.5871 1158.13 38.7889 1155.03 37.9657 L 1154.04 36.4411 z"/>
<path transform="translate(0,0)" fill="rgb(1,19,65)" d="M 357.764 199.312 L 359.159 201.562 C 358.086 204.056 356.641 205.569 354.666 207.432 C 348.875 212.895 342.046 216.922 336.004 222.024 C 329.174 227.792 322.828 234.177 316.087 240.064 C 306.261 248.644 296.017 256.846 286.701 265.984 C 256.015 296.086 227.875 328.723 200.367 361.715 C 189.814 374.372 180.5 388.105 171.08 401.611 C 139.277 447.206 113.198 494.843 89.3473 545.007 C 85.9941 552.059 82.2209 559.126 79.3602 566.38 C 73.7481 580.609 69.5374 596.547 61.2271 609.42 C 60.8456 610.011 60.4817 610.613 60.1047 611.207 L 58.3879 610.825 C 58.4163 610.527 58.4273 610.227 58.4732 609.931 C 60.8026 594.918 78.5275 558.604 85.179 543.64 C 146.367 408.21 239.99 289.946 357.764 199.312 z"/>
<path transform="translate(0,0)" fill="rgb(1,19,65)" d="M 882.874 9.01887 C 914.198 8.25243 946.909 6.59639 978.014 10.2542 C 996.545 11.8986 1014.92 13.3401 1033.38 15.7937 C 1027.48 15.5612 1021.75 17.1815 1015.78 17.0878 C 1001.44 16.8625 987.012 15.4492 972.645 14.9517 C 958.618 16.0973 943.728 14.1372 929.606 13.8449 C 915.331 13.5493 901.022 14.5464 886.764 14.0701 C 885.652 11.8873 884.716 10.6355 882.874 9.01887 z"/>
<path transform="translate(0,0)" fill="rgb(1,19,65)" d="M 816.84 14.2441 C 837.964 10.2903 861.325 10.3824 882.874 9.01887 C 884.716 10.6355 885.652 11.8873 886.764 14.0701 C 880.544 14.4428 820.548 16.9342 819.362 16.3082 C 818.402 15.8011 817.681 14.9321 816.84 14.2441 z"/>
<path transform="translate(0,0)" fill="rgb(0,44,105)" d="M 786.161 1363.56 C 789.671 1346.25 805.986 1312.7 814.71 1296.5 C 865.076 1202.98 902.946 1238 989.517 1229.08 C 1002.62 1227.73 1016.92 1225.6 1027.79 1217.54 C 1054.36 1197.82 1039.77 1148.61 1045.82 1120.2 C 1048.62 1107.09 1060.07 1096.66 1060.58 1083.32 C 1060.97 1072.95 1052.23 1059.75 1053.17 1052.95 C 1054.98 1050.88 1057.27 1050.37 1059.87 1049.8 C 1073.05 1046.88 1086.83 1046.14 1100.12 1043.6 C 1109.73 1041.76 1119.17 1039.01 1128.76 1037.03 C 1164.04 1030.03 1199.22 1022.52 1234.28 1014.5 C 1389.76 979.544 1541.73 930.5 1688.31 867.979 C 1713.66 857.136 1738.74 845.679 1763.52 833.618 C 1787.79 821.536 1811.42 808.326 1836.15 797.164 C 1837.66 816.021 1840.13 834.967 1840.25 853.893 C 1841.43 868.675 1841.12 883.658 1841.42 898.484 C 1841.91 922.23 1843 947.756 1840.21 971.316 C 1840.01 991.584 1837.73 1011.53 1835.65 1031.66 C 1833.75 1050.01 1832.11 1068.36 1828.94 1086.55 C 1825.83 1104.36 1820.94 1121.82 1817.85 1139.67 C 1786.67 1268.63 1723.99 1385.76 1641.36 1488.84 C 1638.46 1493.14 1634.76 1497.41 1632.3 1501.88 C 1648.95 1525.85 1671.74 1547.46 1691.85 1568.63 C 1706.12 1583.65 1719.51 1599.44 1733.86 1614.43 C 1747.24 1628.42 1794.28 1673.52 1799.67 1687.26 C 1795.97 1690.51 1630.61 1689.45 1614.22 1688.39 C 1609.82 1688.11 1604.5 1687.87 1600.53 1685.84 C 1587.22 1679.03 1568.29 1655.43 1558.04 1643.62 C 1548.42 1632.55 1539.56 1620.4 1529.38 1609.88 C 1515.02 1629.43 1487.96 1647.8 1468.42 1662.62 C 1354.62 1748.88 1221.94 1803.01 1082.02 1828.43 C 1072.59 1830.14 1063.28 1832.45 1053.8 1833.9 C 1047.32 1834.93 1040.79 1835.64 1034.24 1836.04 C 992.209 1742.56 928.093 1650.05 859.779 1573.97 C 837.951 1549.66 815.211 1525.7 790.76 1504.02 C 783.804 1497.85 761.944 1480.99 758.936 1473.07 C 760.769 1468.54 760.989 1457.21 762.143 1451.44 C 765.51 1434.59 769.872 1417.77 774.198 1401.15 C 777.791 1388.69 781.079 1375.49 786.161 1363.56 z"/>
<path transform="translate(0,0)" fill="rgb(0,154,254)" d="M 1198.55 1091.98 C 1228.59 1091.65 1258.66 1092.04 1288.7 1092.08 C 1305.27 1092.1 1322.36 1092.89 1338.85 1091.25 L 1338.55 1286.6 C 1338.55 1311.01 1341.29 1349.81 1337.62 1372.54 C 1352 1352.77 1368.38 1334.35 1384.12 1315.67 L 1454 1232.07 L 1531.03 1139.54 C 1544.25 1123.64 1556.67 1106.28 1571.18 1091.6 C 1600.09 1092.39 1629.17 1091.95 1658.09 1092 C 1687.85 1092.05 1717.7 1092.58 1747.45 1091.81 C 1725.09 1120.29 1700.93 1147.55 1677.55 1175.21 L 1591.05 1278.31 C 1564.01 1309.76 1537.31 1341.5 1510.94 1373.53 C 1525.11 1390.48 1623.71 1498.53 1632.3 1501.88 C 1648.95 1525.85 1671.74 1547.46 1691.85 1568.63 C 1706.12 1583.65 1719.51 1599.44 1733.86 1614.43 C 1747.24 1628.42 1794.28 1673.52 1799.67 1687.26 C 1795.97 1690.51 1630.61 1689.45 1614.22 1688.39 C 1609.82 1688.11 1604.5 1687.87 1600.53 1685.84 C 1587.22 1679.03 1568.29 1655.43 1558.04 1643.62 C 1548.42 1632.55 1539.56 1620.4 1529.38 1609.88 C 1521.87 1596.54 1501.84 1579.18 1490.76 1567.17 L 1394.08 1461.19 C 1379.14 1445.05 1348.79 1415.8 1337.97 1398.67 C 1339.35 1410.07 1338.7 1421.78 1338.65 1433.26 L 1338.72 1481.8 C 1338.89 1549.84 1337.59 1618 1338.94 1686.02 C 1292.38 1684.42 1245.27 1685.06 1198.69 1685.62 C 1197.84 1620.4 1198.64 1555.11 1198.55 1489.87 L 1198.55 1091.98 z"/>
<path transform="translate(0,0)" fill="rgb(1,19,65)" d="M 1641.36 1488.84 L 1639.47 1487.36 C 1640.69 1479.6 1679.69 1430.35 1687.08 1419.63 C 1705.5 1392.93 1722.19 1364.19 1737.41 1335.54 C 1758.61 1295.23 1776.67 1253.34 1791.43 1210.26 C 1798.8 1189.22 1803.32 1165.42 1813.31 1145.66 L 1812.39 1148.28 C 1813.55 1147.24 1813.86 1146.66 1814.52 1145.19 C 1815.42 1143.15 1816.56 1141.48 1817.85 1139.67 C 1786.67 1268.63 1723.99 1385.76 1641.36 1488.84 z"/>
<path transform="translate(0,0)" fill="rgb(0,0,18)" d="M 1840.25 853.893 C 1841.43 868.675 1841.12 883.658 1841.42 898.484 C 1841.91 922.23 1843 947.756 1840.21 971.316 C 1836.95 943.669 1836.29 916.332 1837.7 888.511 C 1838.28 876.948 1839.7 865.469 1840.25 853.893 z"/>
<path transform="translate(0,0)" fill="rgb(0,154,254)" d="M 213.194 1500.72 C 213.254 1500.06 213.313 1499.4 213.418 1498.75 C 213.875 1495.91 214.96 1493.63 216.425 1491.17 C 226.369 1474.5 237.897 1458.54 248.668 1442.38 L 293.473 1374.31 C 312.718 1345.43 330.661 1315.35 350.629 1287.01 C 353.219 1283.33 355.615 1279.62 359.282 1276.95 C 380.26 1283.41 402.052 1286.89 423.01 1293.48 C 533.597 1328.22 629.893 1373.2 722.124 1444.44 C 734.253 1453.81 747.514 1462.9 758.936 1473.07 C 761.944 1480.99 783.804 1497.85 790.76 1504.02 C 815.211 1525.7 837.951 1549.66 859.779 1573.97 C 928.093 1650.05 992.209 1742.56 1034.24 1836.04 C 1024.75 1838.07 1014.09 1838.12 1004.39 1838.96 C 941.792 1844.37 878.644 1841.67 816.169 1836.09 C 772.455 1832.19 721.527 1819.98 679.286 1808.11 C 539.422 1768.8 402.303 1693.71 297.096 1592.85 C 267.03 1564.02 239.912 1532.61 213.194 1500.72 z"/>
<path transform="translate(0,0)" fill="rgb(0,154,254)" d="M 1773.86 587.592 C 1775.09 587.765 1776.27 588.233 1777.45 588.607 C 1781.8 593.577 1784.46 604.925 1786.75 611.249 C 1790.28 620.977 1810.84 678.119 1810.76 684.301 C 1810.75 684.922 1810.04 686.329 1809.84 686.704 C 1804.81 695.773 1752.07 726.103 1739.77 733.71 C 1574.68 835.181 1396.23 913.106 1209.59 965.225 C 1172.38 975.971 1134.67 984.61 1097.15 994.162 C 1089.34 995.286 1077.11 1000.68 1069.81 998.868 C 1067.69 998.342 1066.17 997.276 1064.99 995.441 C 1063.22 992.69 1063.24 987.783 1064.11 984.737 C 1066.35 976.889 1102.91 969.962 1112.13 964.83 C 1126.55 956.808 1129.69 946.396 1133.92 931.745 C 1148.94 921.43 1188.13 909.878 1206.67 902.742 C 1238.88 890.336 1270.82 876.858 1302.82 863.866 C 1357.23 841.777 1410.86 816.566 1463.34 790.244 C 1573.77 734.851 1683 672.206 1773.86 587.592 z"/>
<path transform="translate(0,0)" fill="rgb(0,154,254)" d="M 1676.97 405.623 C 1678 405.592 1678.97 405.509 1680 405.736 C 1682.13 406.209 1684.11 408.617 1685.38 410.295 C 1690.06 416.521 1693.72 424.314 1698.05 430.942 C 1708.07 446.287 1721.63 462.403 1729.18 478.94 C 1730.77 482.424 1732.35 486.359 1730.86 490.121 C 1726.55 501.044 1692.12 530.788 1681.35 540.986 C 1582.65 634.397 1467.5 710.131 1348.97 775.689 C 1320.49 791.631 1291.69 806.99 1262.58 821.754 C 1220.71 842.054 1178.41 861.456 1135.71 879.949 C 1128.69 882.628 1120.18 888.704 1112.82 889.339 C 1110.19 889.566 1107.77 888.923 1105.82 887.04 C 1102.24 883.582 1091.34 852.25 1091.35 846.503 C 1091.36 843.849 1092.29 843.106 1094.28 841.573 C 1102.09 835.559 1111.62 831.526 1120.26 826.808 C 1141.76 815.075 1163.52 804.003 1184.74 791.752 C 1222.98 769.678 1261.33 748.026 1298.64 724.369 C 1397.14 661.85 1489.63 590.315 1574.89 510.688 C 1596.54 490.364 1617.47 469.294 1637.64 447.517 C 1650.7 433.571 1663.3 418.952 1676.97 405.623 z"/>
</svg>